# Blender v2.81 (sub 16) OBJ File: 'frameWork.blend'
# www.blender.org
mtllib frameWork.mtl
o Cube
v 0.009121 -0.725000 -0.726475
v -0.012551 -0.725000 -0.726475
v 0.009121 0.725000 -0.726475
v -0.012551 0.725000 -0.726475
v 0.009121 -0.725000 0.723524
v -0.012551 -0.725000 0.723524
v 0.009121 0.725000 0.723524
v -0.012551 0.725000 0.723524
v -0.012551 -0.000000 -0.726475
v -0.012551 0.725000 -0.001476
v -0.012551 -0.000000 0.723524
v -0.012551 -0.725000 -0.001476
v 0.009121 -0.725000 0.542274
v -0.012551 0.362500 -0.726475
v -0.012551 0.725000 0.361024
v -0.012551 -0.362500 0.723524
v -0.012551 -0.725000 -0.363975
v -0.012551 -0.362500 -0.726475
v -0.012551 0.725000 -0.363975
v -0.012551 0.362500 0.723524
v -0.012551 -0.725000 0.361024
v 0.009121 0.543750 0.723524
v 0.009121 0.725000 -0.545225
v 0.009121 -0.543750 -0.726475
v 0.009121 0.362500 -0.726475
v -0.012551 0.543750 -0.726475
v -0.012551 0.725000 0.542274
v -0.012551 -0.543750 0.723524
v -0.012551 -0.725000 -0.545225
v -0.012551 -0.181250 -0.726475
v -0.012551 0.725000 -0.182725
v -0.012551 0.181250 0.723524
v -0.012551 -0.725000 0.179774
v 0.009121 0.725000 0.361024
v 0.009121 -0.362500 0.723524
v -0.012551 0.181250 -0.726475
v -0.012551 0.725000 0.179774
v -0.012551 -0.181250 0.723524
v -0.012551 -0.725000 -0.182725
v -0.012551 -0.543750 -0.726475
v -0.012551 0.725000 -0.545225
v -0.012551 0.543750 0.723524
v -0.012551 -0.725000 0.542274
v 0.009121 -0.725000 -0.363975
v 0.009121 -0.725000 0.361024
v 0.009121 0.362500 0.723524
v 0.009121 0.725000 -0.363975
v 0.009121 -0.362500 -0.726475
v 0.009121 -0.725000 -0.001476
v 0.009121 -0.000000 0.723524
v 0.009121 0.725000 -0.001476
v 0.009121 -0.000000 -0.726475
v 0.009121 -0.362500 0.542274
v 0.009121 -0.543750 0.361024
v 0.009121 0.362500 0.542274
v 0.009121 0.543750 0.361024
v 0.009121 0.362500 -0.545225
v 0.009121 0.543750 -0.363975
v 0.009121 -0.362500 -0.545225
v 0.009121 -0.543750 -0.363975
v 0.009121 0.543750 -0.726475
v 0.009121 0.725000 0.542274
v 0.009121 -0.543750 0.723524
v 0.009121 -0.725000 -0.545225
v 0.009121 0.543750 -0.001476
v 0.009121 -0.000000 0.542274
v 0.009121 -0.725000 0.179774
v 0.009121 0.181250 0.723524
v 0.009121 0.725000 -0.182725
v 0.009121 -0.181250 -0.726475
v 0.009121 -0.000000 -0.545225
v 0.009121 -0.543750 -0.001476
v 0.009121 -0.725000 -0.182725
v 0.009121 -0.181250 0.723524
v 0.009121 0.725000 0.179774
v 0.009121 0.181250 -0.726475
v 0.009121 -0.543750 -0.182725
v 0.009121 0.181250 0.542274
v 0.009121 -0.543750 -0.545225
v 0.009121 -0.181250 -0.545225
v 0.009121 0.181250 -0.545225
v 0.009121 0.543750 -0.545225
v 0.009121 0.543750 -0.182725
v 0.009121 0.543750 0.179774
v 0.009121 0.543750 0.542274
v 0.009121 -0.543750 0.179774
v 0.009121 -0.181250 0.542274
v 0.009121 -0.543750 0.542274
v -0.001715 0.543750 0.542274
v -0.001715 -0.543750 0.542274
v -0.001715 -0.543750 -0.545225
v -0.001715 0.543750 -0.545225
v -0.001715 0.453125 -0.545225
v -0.001715 -0.453125 -0.545225
v -0.001715 -0.543750 -0.454600
v -0.001715 -0.543750 0.451649
v -0.001715 -0.453125 0.542274
v -0.001715 0.453125 0.542274
v -0.001715 0.543750 0.451649
v -0.001715 0.543750 -0.454600
v -0.001715 0.453125 -0.454600
v -0.001715 -0.453125 -0.454600
v -0.001715 -0.453125 0.451649
v -0.001715 0.453125 0.451649
v -0.001715 -0.453125 -0.454600
v -0.012551 1.051161 -0.001476
v -0.009651 1.051161 -0.001476
v -0.009651 0.725000 -0.726475
v -0.009651 0.725000 0.723524
v -0.012551 0.727900 0.723524
v -0.012551 1.054061 -0.001476
v -0.012551 0.727900 -0.726475
v -0.009651 0.727900 -0.726475
v -0.009651 0.727900 0.723524
v -0.009651 1.054061 -0.001476
vt 0.625000 0.218750
vt 0.625000 0.250000
vt 0.591547 0.250000
vt 0.375000 0.250000
vt 0.375000 0.437500
vt 0.375000 0.406250
vt 0.625000 0.437500
vt 0.625000 0.718750
vt 0.625000 0.750000
vt 0.375000 0.750000
vt 0.625000 1.000000
vt 0.375000 1.000000
vt 0.375000 0.968750
vt 0.375000 0.718750
vt 0.343750 0.750000
vt 0.343750 0.718750
vt 0.000000 0.000000
vt 0.375000 0.843750
vt 0.375000 0.875000
vt 0.375000 0.687500
vt 0.343750 0.687500
vt 0.312500 0.718750
vt 0.375000 0.812500
vt 0.156250 0.687500
vt 0.156250 0.718750
vt 0.125000 0.718750
vt 0.125000 0.750000
vt 0.187500 0.718750
vt 0.375000 0.906250
vt 0.375000 0.937500
vt 0.156250 0.625000
vt 0.375000 0.093750
vt 0.375000 0.125000
vt 0.375000 0.062500
vt 0.156250 0.562500
vt 0.375000 0.156250
vt 0.375000 0.187500
vt 0.343750 0.531250
vt 0.375000 0.531250
vt 0.375000 0.562500
vt 0.000000 0.000000
vt 0.000000 0.000000
vt 0.375000 0.218750
vt 0.156250 0.500000
vt 0.125000 0.531250
vt 0.125000 0.500000
vt 0.375000 0.375000
vt 0.000000 0.000000
vt 0.375000 0.500000
vt 0.343750 0.500000
vt 0.000000 0.000000
vt 0.343750 0.562500
vt 0.000000 0.000000
vt 0.375000 0.625000
vt 0.375000 0.656250
vt 0.000000 0.000000
vt 0.218750 0.531250
vt 0.375000 0.312500
vt 0.187500 0.531250
vt 0.156250 0.531250
vt 0.375000 0.031250
vt 0.375000 0.000000
vt 0.625000 0.000000
vt 0.625000 0.031250
vt 0.625000 0.062500
vt 0.625000 0.093750
vt 0.625000 0.125000
vt 0.625000 0.156250
vt 0.625000 0.187500
vt 0.375000 0.281250
vt 0.625000 0.281250
vt 0.625000 0.312500
vt 0.625000 0.343750
vt 0.625000 0.375000
vt 0.375000 0.343750
vt 0.625000 0.406250
vt 0.625000 0.468750
vt 0.625000 0.500000
vt 0.591547 0.500000
vt 0.375000 0.468750
vt 0.625000 0.531250
vt 0.625000 0.562500
vt 0.625000 0.593750
vt 0.375000 0.593750
vt 0.625000 0.625000
vt 0.625000 0.656250
vt 0.625000 0.687500
vt 0.375000 0.781250
vt 0.625000 0.781250
vt 0.625000 0.843750
vt 0.625000 0.812500
vt 0.625000 0.875000
vt 0.625000 0.906250
vt 0.625000 0.937500
vt 0.625000 0.968750
vt 0.000000 0.000000
vt 0.156250 0.750000
vt 0.000000 0.000000
vt 0.000000 0.000000
vt 0.000000 0.000000
vt 0.218750 0.500000
vt 0.000000 0.000000
vt 0.000000 0.000000
vt 0.000000 0.000000
vt 0.000000 0.000000
vt 0.000000 0.000000
vt 0.000000 0.000000
vt 0.000000 0.000000
vt 0.000000 0.000000
vt 0.625000 0.250000
vt 0.591547 0.250000
vt 0.000000 0.000000
vt 0.000000 0.000000
vt 0.000000 0.000000
vt 0.000000 0.000000
vt 0.000000 0.000000
vt 0.000000 0.000000
vt 0.000000 0.000000
vt 0.000000 0.000000
vt 0.000000 0.000000
vt 0.000000 0.000000
vt 0.625000 0.500000
vt 0.591547 0.500000
vt 0.000000 0.000000
vt 0.000000 0.000000
vt 0.000000 0.000000
vt 0.000000 0.000000
vt 0.000000 0.000000
vt 0.000000 0.000000
vt 0.000000 0.000000
vt 0.000000 0.000000
vt 0.000000 0.000000
vt 0.000000 0.000000
vt 0.000000 0.000000
vt 0.000000 0.000000
vt 0.000000 0.000000
vt 0.000000 0.000000
vn 0.0000 0.0000 -1.0000
vn 0.0000 1.0000 0.0000
vn 0.0000 0.0000 1.0000
vn 0.0000 -1.0000 0.0000
vn 1.0000 0.0000 -0.0000
vn -1.0000 0.0000 0.0000
vn 0.0000 0.9120 -0.4103
vn 0.0000 -0.9120 -0.4103
usemtl Cadre
s off
f 26/1/1 4/2/1 108/3/1 3/4/1
f 34/5/2 75/6/2 15/7/2
f 28/8/3 6/9/3 5/10/3
f 2/11/4 1/12/4 64/13/4
f 63/14/5 13/15/5 88/16/5
f 72/17/5 67/18/5 49/19/5
f 35/20/5 88/16/5 53/21/5
f 67/18/5 54/22/5 45/23/5
f 59/24/5 79/25/5 24/26/5
f 79/25/5 1/27/5 24/26/5
f 60/28/5 73/29/5 44/30/5
f 73/29/5 72/17/5 49/19/5
f 64/13/5 60/28/5 44/30/5
f 71/31/5 70/32/5 52/33/5
f 70/32/5 59/24/5 48/34/5
f 57/35/5 76/36/5 25/37/5
f 76/36/5 71/31/5 52/33/5
f 85/38/5 22/39/5 46/40/5
f 84/41/5 34/5/5 56/42/5
f 64/13/5 79/25/5 60/28/5
f 61/43/5 57/35/5 25/37/5
f 23/44/5 61/45/5 3/46/5
f 51/47/5 84/41/5 65/48/5
f 7/49/5 85/38/5 62/50/5
f 59/24/5 24/26/5 48/34/5
f 46/40/5 78/51/5 55/52/5
f 87/53/5 50/54/5 74/55/5
f 78/51/5 50/54/5 66/56/5
f 87/53/5 35/20/5 53/21/5
f 34/5/5 85/38/5 56/42/5
f 83/57/5 51/47/5 65/48/5
f 47/58/5 83/57/5 58/59/5
f 82/60/5 47/58/5 58/59/5
f 24/61/1 1/62/1 2/63/1
f 40/64/1 18/65/1 48/34/1
f 18/65/1 30/66/1 48/34/1
f 24/61/1 2/63/1 40/64/1
f 52/33/1 70/32/1 30/66/1
f 70/32/1 48/34/1 30/66/1
f 48/34/1 24/61/1 40/64/1
f 30/66/1 9/67/1 52/33/1
f 9/67/1 36/68/1 52/33/1
f 25/37/1 76/36/1 36/68/1
f 76/36/1 52/33/1 36/68/1
f 36/68/1 14/69/1 25/37/1
f 14/69/1 26/1/1 25/37/1
f 3/4/1 61/43/1 26/1/1
f 61/43/1 25/37/1 26/1/1
f 23/70/2 3/4/2 108/3/2 4/2/2
f 4/2/2 41/71/2 23/70/2
f 41/71/2 19/72/2 47/58/2
f 31/73/2 10/74/2 69/75/2
f 10/74/2 37/76/2 51/47/2
f 51/47/2 37/76/2 75/6/2
f 41/71/2 47/58/2 23/70/2
f 19/72/2 31/73/2 47/58/2
f 51/47/2 69/75/2 10/74/2
f 69/75/2 47/58/2 31/73/2
f 37/76/2 15/7/2 75/6/2
f 27/77/2 8/78/2 109/79/2 7/49/2
f 15/7/2 27/77/2 62/80/2
f 27/77/2 7/49/2 62/80/2
f 62/80/2 34/5/2 15/7/2
f 22/39/3 7/49/3 109/79/3 8/78/3
f 42/81/3 20/82/3 46/40/3
f 20/82/3 32/83/3 46/40/3
f 22/39/3 8/78/3 42/81/3
f 50/54/3 68/84/3 32/83/3
f 68/84/3 46/40/3 32/83/3
f 46/40/3 22/39/3 42/81/3
f 32/83/3 11/85/3 50/54/3
f 11/85/3 38/86/3 50/54/3
f 35/20/3 74/55/3 38/86/3
f 74/55/3 50/54/3 38/86/3
f 38/86/3 16/87/3 35/20/3
f 16/87/3 28/8/3 35/20/3
f 5/10/3 63/14/3 28/8/3
f 63/14/3 35/20/3 28/8/3
f 13/88/4 5/10/4 6/9/4
f 13/88/4 6/9/4 43/89/4
f 49/19/4 67/18/4 33/90/4
f 67/18/4 45/23/4 21/91/4
f 45/23/4 13/88/4 43/89/4
f 21/91/4 33/90/4 67/18/4
f 33/90/4 12/92/4 49/19/4
f 45/23/4 43/89/4 21/91/4
f 44/30/4 73/29/4 39/93/4
f 73/29/4 49/19/4 12/92/4
f 12/92/4 39/93/4 73/29/4
f 17/94/4 29/95/4 64/13/4
f 29/95/4 2/11/4 64/13/4
f 17/94/4 64/13/4 44/30/4
f 39/93/4 17/94/4 44/30/4
f 63/14/5 5/10/5 13/15/5
f 72/17/5 86/96/5 67/18/5
f 67/18/5 86/96/5 54/22/5
f 79/25/5 64/97/5 1/27/5
f 60/28/5 77/98/5 73/29/5
f 73/29/5 77/98/5 72/17/5
f 71/31/5 80/99/5 70/32/5
f 70/32/5 80/99/5 59/24/5
f 57/35/5 81/100/5 76/36/5
f 76/36/5 81/100/5 71/31/5
f 85/38/5 46/40/5 55/52/5
f 84/41/5 75/6/5 34/5/5
f 61/43/5 82/60/5 57/35/5
f 23/44/5 82/60/5 61/45/5
f 82/60/5 23/44/5 47/58/5
f 51/47/5 75/6/5 84/41/5
f 7/49/5 22/39/5 85/38/5
f 35/20/5 63/14/5 88/16/5
f 46/40/5 68/84/5 78/51/5
f 87/53/5 66/56/5 50/54/5
f 78/51/5 68/84/5 50/54/5
f 87/53/5 74/55/5 35/20/5
f 34/5/5 62/50/5 85/38/5
f 83/57/5 69/101/5 51/47/5
f 47/58/5 69/101/5 83/57/5
f 54/22/5 13/15/5 45/23/5
f 54/22/5 88/16/5 13/15/5
f 85/102/1 88/103/1 90/104/1
f 82/105/4 85/102/4 89/106/4
f 79/107/3 82/105/3 92/108/3
f 90/104/2 88/103/2 79/107/2
f 90/104/2 79/107/2 91/109/2
f 79/107/3 92/108/3 91/109/3
f 82/105/4 89/106/4 92/108/4
f 85/102/1 90/104/1 89/106/1
f 108/3/1 4/2/1 112/110/1 113/111/1
f 107/112/6 109/113/6 114/114/6 115/115/6
f 8/116/5 106/117/5 111/118/5 110/119/5
f 107/112/5 108/120/5 113/121/5 115/115/5
f 109/79/1 8/78/1 110/122/1 114/123/1
f 4/124/6 106/117/6 111/118/6 112/125/6
usemtl Toile
f 100/126/5 101/127/5 92/108/5
f 96/128/5 103/129/5 90/104/5
f 97/130/5 90/104/5 103/129/5
f 98/131/5 104/132/5 89/106/5
f 89/106/5 104/132/5 99/133/5
f 92/108/5 101/127/5 93/134/5
f 94/135/5 105/136/5 91/109/5
f 95/137/5 91/109/5 105/136/5
f 103/129/5 104/132/5 98/131/5 97/130/5
f 101/127/5 100/126/5 99/133/5 104/132/5
f 101/127/5 105/136/5 94/135/5 93/134/5
f 96/128/5 95/137/5 105/136/5 103/129/5
usemtl Fil
f 112/125/7 111/118/7 115/115/7 113/121/7
f 110/119/8 111/118/8 115/115/8 114/114/8
l 102 105
